<svg width="24" height="24" viewBox="0 0 24 24" fill="none" xmlns="http://www.w3.org/2000/svg">
<path d="M2 22C1.45 22 0.979002 21.804 0.587002 21.412C0.195002 21.02 -0.000664969 20.5493 1.69779e-06 20V8C1.69779e-06 7.45 0.196001 6.979 0.588001 6.587C0.980001 6.195 1.45067 5.99933 2 6H4C4 4.9 4.39167 3.95833 5.175 3.175C5.95834 2.39167 6.9 2 8 2C9.1 2 10.0417 2.39167 10.825 3.175C11.6083 3.95833 12 4.9 12 6H14C14.55 6 15.021 6.196 15.413 6.588C15.805 6.98 16.0007 7.45067 16 8V20C16 20.55 15.804 21.021 15.412 21.413C15.02 21.805 14.5493 22.0007 14 22H2ZM6 6H10C10 5.45 9.804 4.979 9.412 4.587C9.02 4.195 8.54934 3.99933 8 4C7.45 4 6.979 4.196 6.587 4.588C6.195 4.98 5.99934 5.45067 6 6ZM11 11C11.2833 11 11.521 10.904 11.713 10.712C11.905 10.52 12.0007 10.2827 12 10V8H10V10C10 10.2833 10.096 10.521 10.288 10.713C10.48 10.905 10.7173 11.0007 11 11ZM5 11C5.28334 11 5.521 10.904 5.713 10.712C5.905 10.52 6.00067 10.2827 6 10V8H4V10C4 10.2833 4.096 10.521 4.288 10.713C4.48 10.905 4.71734 11.0007 5 11Z" fill="white"/>
</svg>
